<svg xmlns="http://www.w3.org/2000/svg" xmlns:xlink="http://www.w3.org/1999/xlink" width="1080" zoomAndPan="magnify" viewBox="0 0 810 809.999993" height="1080" preserveAspectRatio="xMidYMid meet" version="1.0"><defs><clipPath id="c044fd5db4"><path d="M 209.105469 199.066406 L 600.605469 199.066406 L 600.605469 610.816406 L 209.105469 610.816406 Z M 209.105469 199.066406 " clip-rule="nonzero"/></clipPath></defs><path fill="#8284fa" d="M 404.867188 300.976562 C 361.621094 300.976562 326.5625 337.816406 326.5625 383.261719 C 326.5625 428.707031 361.621094 465.546875 404.867188 465.546875 C 448.117188 465.546875 483.171875 428.707031 483.171875 383.261719 C 483.171875 337.816406 448.117188 300.976562 404.867188 300.976562 " fill-opacity="1" fill-rule="nonzero"/><g clip-path="url(#c044fd5db4)"><path fill="#8284fa" d="M 534.917969 546.957031 C 517.574219 504.601562 481.167969 478.113281 404.75 478.113281 C 328.429688 478.113281 292.023438 504.535156 274.65625 546.789062 C 239.304688 510.945312 217.3125 460.640625 217.3125 404.941406 C 217.3125 296.089844 301.285156 207.851562 404.867188 207.851562 C 508.453125 207.851562 592.421875 296.089844 592.421875 404.941406 C 592.421875 460.730469 570.363281 511.101562 534.917969 546.957031 Z M 404.867188 199.230469 C 296.75 199.230469 209.105469 291.332031 209.105469 404.941406 C 209.105469 464.363281 233.082031 517.902344 271.429688 555.457031 C 306.390625 589.703125 353.296875 610.65625 404.867188 610.65625 C 456.347656 610.65625 503.1875 589.769531 538.132812 555.628906 C 576.578125 518.070312 600.628906 464.457031 600.628906 404.941406 C 600.628906 291.332031 512.980469 199.230469 404.867188 199.230469 " fill-opacity="1" fill-rule="nonzero"/></g></svg>