<svg xmlns="http://www.w3.org/2000/svg" xmlns:xlink="http://www.w3.org/1999/xlink" width="1080" zoomAndPan="magnify" viewBox="0 0 810 809.999993" height="1080" preserveAspectRatio="xMidYMid meet" version="1.0"><defs><g/><clipPath id="00ea59adb1"><path d="M 262.910156 150 L 547 150 L 547 376.285156 L 262.910156 376.285156 Z M 262.910156 150 " clip-rule="nonzero"/></clipPath></defs><g clip-path="url(#00ea59adb1)"><path fill="#8284fa" d="M 537.855469 151.132812 L 532.980469 159.101562 L 533.203125 159.101562 C 535.640625 159.101562 537.632812 161.09375 537.632812 163.527344 L 537.632812 322.898438 L 271.773438 322.898438 L 271.773438 163.527344 C 271.773438 161.09375 273.765625 159.101562 276.203125 159.101562 L 415.78125 159.101562 C 418.21875 159.101562 420.210938 157.109375 420.210938 154.675781 C 420.210938 152.242188 418.21875 150.25 415.78125 150.25 L 276.203125 150.25 C 268.894531 150.25 262.910156 156.226562 262.910156 163.527344 L 262.910156 336.179688 C 262.910156 343.484375 268.894531 349.460938 276.203125 349.460938 L 386.980469 349.460938 L 386.980469 367.167969 L 371.472656 367.167969 C 369.035156 367.167969 367.039062 369.160156 367.039062 371.59375 C 367.039062 374.03125 369.035156 376.023438 371.472656 376.023438 L 437.9375 376.023438 C 440.375 376.023438 442.367188 374.03125 442.367188 371.59375 C 442.367188 369.160156 440.375 367.167969 437.9375 367.167969 L 422.429688 367.167969 L 422.429688 349.460938 L 533.203125 349.460938 C 540.515625 349.460938 546.496094 343.484375 546.496094 336.179688 L 546.496094 163.527344 C 546.496094 157.773438 542.953125 153.125 537.855469 151.132812 Z M 413.566406 367.167969 L 395.839844 367.167969 L 395.839844 349.460938 L 413.566406 349.460938 Z M 413.566406 367.167969 " fill-opacity="1" fill-rule="nonzero"/></g><path fill="#8284fa" d="M 316.082031 309.617188 C 316.082031 309.910156 316.054688 310.195312 316 310.480469 C 315.941406 310.765625 315.855469 311.042969 315.746094 311.3125 C 315.632812 311.582031 315.5 311.835938 315.335938 312.078125 C 315.175781 312.320312 314.992188 312.542969 314.785156 312.75 C 314.578125 312.953125 314.355469 313.136719 314.113281 313.300781 C 313.871094 313.460938 313.617188 313.597656 313.347656 313.707031 C 313.078125 313.820312 312.800781 313.902344 312.515625 313.960938 C 312.230469 314.015625 311.941406 314.046875 311.652344 314.046875 C 311.359375 314.046875 311.074219 314.015625 310.789062 313.960938 C 310.503906 313.902344 310.226562 313.820312 309.957031 313.707031 C 309.6875 313.597656 309.433594 313.460938 309.191406 313.300781 C 308.949219 313.136719 308.726562 312.953125 308.519531 312.75 C 308.3125 312.542969 308.128906 312.320312 307.96875 312.078125 C 307.804688 311.835938 307.667969 311.582031 307.558594 311.3125 C 307.445312 311.042969 307.363281 310.765625 307.304688 310.480469 C 307.25 310.195312 307.222656 309.910156 307.222656 309.617188 C 307.222656 309.328125 307.25 309.039062 307.304688 308.753906 C 307.363281 308.46875 307.445312 308.191406 307.558594 307.925781 C 307.667969 307.65625 307.804688 307.402344 307.96875 307.160156 C 308.128906 306.917969 308.3125 306.695312 308.519531 306.488281 C 308.726562 306.28125 308.949219 306.097656 309.191406 305.9375 C 309.433594 305.777344 309.6875 305.640625 309.957031 305.527344 C 310.226562 305.417969 310.503906 305.332031 310.789062 305.277344 C 311.074219 305.21875 311.359375 305.191406 311.652344 305.191406 C 311.941406 305.191406 312.230469 305.21875 312.515625 305.277344 C 312.800781 305.332031 313.078125 305.417969 313.347656 305.527344 C 313.617188 305.640625 313.871094 305.777344 314.113281 305.9375 C 314.355469 306.097656 314.578125 306.28125 314.785156 306.488281 C 314.992188 306.695312 315.175781 306.917969 315.335938 307.160156 C 315.5 307.402344 315.632812 307.65625 315.746094 307.925781 C 315.855469 308.191406 315.941406 308.46875 316 308.753906 C 316.054688 309.039062 316.082031 309.328125 316.082031 309.617188 Z M 316.082031 309.617188 " fill-opacity="1" fill-rule="nonzero"/><path fill="#8284fa" d="M 289.496094 269.777344 C 289.496094 270.066406 289.46875 270.355469 289.410156 270.640625 C 289.355469 270.925781 289.269531 271.203125 289.160156 271.46875 C 289.046875 271.738281 288.910156 271.992188 288.75 272.234375 C 288.589844 272.476562 288.40625 272.699219 288.199219 272.90625 C 287.992188 273.113281 287.769531 273.296875 287.527344 273.457031 C 287.285156 273.617188 287.03125 273.753906 286.761719 273.867188 C 286.492188 273.976562 286.214844 274.0625 285.929688 274.117188 C 285.644531 274.175781 285.355469 274.203125 285.066406 274.203125 C 284.773438 274.203125 284.488281 274.175781 284.203125 274.117188 C 283.917969 274.0625 283.640625 273.976562 283.371094 273.867188 C 283.101562 273.753906 282.847656 273.617188 282.605469 273.457031 C 282.363281 273.296875 282.136719 273.113281 281.933594 272.90625 C 281.726562 272.699219 281.542969 272.476562 281.382812 272.234375 C 281.21875 271.992188 281.082031 271.738281 280.972656 271.46875 C 280.859375 271.203125 280.777344 270.925781 280.71875 270.640625 C 280.664062 270.355469 280.636719 270.066406 280.636719 269.777344 C 280.636719 269.484375 280.664062 269.199219 280.71875 268.914062 C 280.777344 268.628906 280.859375 268.351562 280.972656 268.082031 C 281.082031 267.8125 281.21875 267.558594 281.382812 267.316406 C 281.542969 267.074219 281.726562 266.851562 281.933594 266.644531 C 282.136719 266.441406 282.363281 266.257812 282.605469 266.09375 C 282.847656 265.933594 283.101562 265.796875 283.371094 265.6875 C 283.640625 265.574219 283.917969 265.492188 284.203125 265.433594 C 284.488281 265.378906 284.773438 265.347656 285.066406 265.347656 C 285.355469 265.347656 285.644531 265.378906 285.929688 265.433594 C 286.214844 265.492188 286.492188 265.574219 286.761719 265.6875 C 287.03125 265.796875 287.285156 265.933594 287.527344 266.09375 C 287.769531 266.257812 287.992188 266.441406 288.199219 266.644531 C 288.40625 266.851562 288.589844 267.074219 288.75 267.316406 C 288.910156 267.558594 289.046875 267.8125 289.160156 268.082031 C 289.269531 268.351562 289.355469 268.628906 289.410156 268.914062 C 289.46875 269.199219 289.496094 269.484375 289.496094 269.777344 Z M 289.496094 269.777344 " fill-opacity="1" fill-rule="nonzero"/><path fill="#8284fa" d="M 515.480469 241 L 453.445312 241 C 451.007812 241 449.015625 242.992188 449.015625 245.425781 C 449.015625 247.863281 451.007812 249.855469 453.445312 249.855469 L 515.480469 249.855469 C 517.917969 249.855469 519.910156 247.863281 519.910156 245.425781 C 519.910156 242.992188 517.917969 241 515.480469 241 Z M 515.480469 241 " fill-opacity="1" fill-rule="nonzero"/><path fill="#8284fa" d="M 515.480469 258.707031 L 453.445312 258.707031 C 451.007812 258.707031 449.015625 260.699219 449.015625 263.136719 C 449.015625 265.570312 451.007812 267.5625 453.445312 267.5625 L 515.480469 267.5625 C 517.917969 267.5625 519.910156 265.570312 519.910156 263.136719 C 519.910156 260.699219 517.917969 258.707031 515.480469 258.707031 Z M 515.480469 258.707031 " fill-opacity="1" fill-rule="nonzero"/><path fill="#8284fa" d="M 515.480469 276.417969 L 453.445312 276.417969 C 451.007812 276.417969 449.015625 278.410156 449.015625 280.84375 C 449.015625 283.277344 451.007812 285.269531 453.445312 285.269531 L 515.480469 285.269531 C 517.917969 285.269531 519.910156 283.277344 519.910156 280.84375 C 519.910156 278.410156 517.917969 276.417969 515.480469 276.417969 Z M 515.480469 276.417969 " fill-opacity="1" fill-rule="nonzero"/><path fill="#8284fa" d="M 515.480469 294.125 L 453.445312 294.125 C 451.007812 294.125 449.015625 296.117188 449.015625 298.550781 C 449.015625 300.984375 451.007812 302.976562 453.445312 302.976562 L 515.480469 302.976562 C 517.917969 302.976562 519.910156 300.984375 519.910156 298.550781 C 519.910156 296.117188 517.917969 294.125 515.480469 294.125 Z M 515.480469 294.125 " fill-opacity="1" fill-rule="nonzero"/><path fill="#8284fa" d="M 545.386719 126.121094 C 547.160156 122.800781 546.9375 120.144531 545.167969 118.597656 C 544.058594 117.710938 542.507812 117.046875 540.515625 117.046875 C 540.070312 117.046875 539.40625 117.046875 538.742188 117.269531 L 493.324219 127.226562 C 486.898438 128.113281 477.152344 131.65625 472.054688 135.417969 L 403.152344 183.007812 L 366.375 180.128906 L 318.078125 213.332031 C 312.761719 217.09375 311.429688 224.179688 315.195312 229.492188 L 322.730469 240.117188 L 298.582031 256.714844 C 296.585938 258.042969 296.144531 260.921875 297.472656 262.914062 C 298.359375 264.242188 299.6875 264.90625 301.019531 264.90625 C 301.902344 264.90625 302.789062 264.683594 303.453125 264.019531 L 327.605469 247.417969 L 335.800781 259.152344 L 278.199219 299.4375 C 276.203125 300.765625 275.761719 303.640625 277.089844 305.632812 C 277.976562 306.960938 279.304688 307.625 280.636719 307.625 C 281.519531 307.625 282.40625 307.40625 283.070312 306.742188 L 341.117188 266.675781 L 349.316406 278.410156 L 322.730469 296.78125 C 320.734375 298.109375 320.292969 300.984375 321.621094 302.976562 C 322.507812 304.304688 323.835938 304.96875 325.167969 304.96875 C 326.054688 304.96875 326.9375 304.75 327.605469 304.085938 L 354.191406 285.714844 L 361.722656 296.335938 C 363.9375 299.65625 367.703125 301.207031 371.25 301.207031 C 373.464844 301.207031 375.902344 300.542969 377.894531 299.214844 L 426.195312 265.792969 L 436.605469 230.375 L 505.289062 183.007812 C 510.605469 179.464844 517.25 171.71875 520.132812 165.964844 Z M 329.15625 234.140625 L 322.507812 224.621094 C 322.066406 223.957031 322.066406 223.070312 322.066406 222.628906 C 322.066406 222.1875 322.285156 221.300781 323.171875 220.859375 L 368.8125 189.425781 L 391.632812 191.199219 Z M 348.207031 261.363281 L 343.113281 254.058594 L 411.128906 207.132812 C 413.121094 205.804688 416.003906 206.25 417.332031 208.242188 C 418.660156 210.234375 418.21875 213.109375 416.222656 214.4375 Z M 418.882812 260.480469 L 373.242188 291.910156 C 372.800781 292.351562 372.136719 292.351562 371.472656 292.351562 C 371.027344 292.351562 369.921875 292.132812 369.035156 291.246094 L 362.386719 281.730469 L 425.308594 238.34375 Z M 500.636719 175.703125 L 486.234375 185.664062 C 486.234375 185.664062 486.234375 185.441406 486.011719 185.441406 L 462.972656 152.683594 L 477.371094 142.722656 C 478.257812 142.058594 479.589844 141.394531 480.917969 140.730469 C 480.917969 141.617188 481.140625 142.722656 481.804688 143.609375 L 501.523438 171.496094 C 502.1875 172.382812 503.074219 173.046875 503.957031 173.269531 C 502.628906 174.152344 501.523438 175.039062 500.636719 175.703125 Z M 500.636719 175.703125 " fill-opacity="1" fill-rule="nonzero"/><g fill="#4ea8de" fill-opacity="1"><g transform="translate(54.701397, 490.851475)"><g><path d="M 58.488281 -68.808594 L 3.441406 -68.808594 L 3.441406 0 L 17.203125 0 L 17.203125 -27.523438 L 58.488281 -27.523438 C 66.054688 -27.523438 72.25 -33.714844 72.25 -41.285156 L 72.25 -55.046875 C 72.25 -62.617188 66.054688 -68.808594 58.488281 -68.808594 Z M 17.203125 -41.285156 L 17.203125 -55.046875 L 58.488281 -55.046875 L 58.488281 -41.285156 Z M 17.203125 -41.285156 "/></g></g></g><g fill="#4ea8de" fill-opacity="1"><g transform="translate(143.975174, 490.851475)"><g><path d="M 72.25 -55.046875 C 72.25 -62.617188 66.054688 -68.808594 58.488281 -68.808594 L 3.441406 -68.808594 L 3.441406 0 L 17.203125 0 L 17.203125 -27.523438 L 25.285156 -27.523438 L 50.746094 -2.0625 C 52.121094 -0.6875 53.84375 0 55.734375 0 L 72.25 0 L 72.25 -13.761719 L 58.488281 -13.761719 L 44.726562 -27.523438 L 58.488281 -27.523438 C 66.054688 -27.523438 72.25 -33.714844 72.25 -41.285156 Z M 58.488281 -55.046875 L 58.488281 -41.285156 L 17.203125 -41.285156 L 17.203125 -55.046875 Z M 58.488281 -55.046875 "/></g></g></g><g fill="#4ea8de" fill-opacity="1"><g transform="translate(233.24895, 490.851475)"><g><path d="M 58.488281 0 C 66.140625 0 72.25 -6.277344 72.25 -13.761719 L 72.25 -55.046875 C 72.25 -62.617188 66.054688 -68.808594 58.488281 -68.808594 L 17.203125 -68.808594 C 9.632812 -68.808594 3.441406 -62.617188 3.441406 -55.046875 L 3.441406 -13.761719 C 3.441406 -6.191406 9.632812 0 17.203125 0 Z M 17.203125 -55.046875 L 58.488281 -55.046875 L 58.488281 -13.761719 L 17.203125 -13.761719 Z M 17.203125 -55.046875 "/></g></g></g><g fill="#4ea8de" fill-opacity="1"><g transform="translate(322.522727, 490.851475)"><g><path d="M 58.488281 0 C 66.140625 0 72.25 -6.277344 72.25 -13.761719 L 72.25 -68.808594 L 30.964844 -68.808594 L 30.964844 -55.046875 L 58.488281 -55.046875 L 58.488281 -13.761719 L 17.203125 -13.761719 L 17.203125 -27.523438 L 3.441406 -27.523438 L 3.441406 -13.761719 C 3.441406 -6.191406 9.632812 0 17.203125 0 Z M 58.488281 0 "/></g></g></g><g fill="#4ea8de" fill-opacity="1"><g transform="translate(411.796503, 490.851475)"><g><path d="M 72.25 -68.808594 L 17.203125 -68.808594 C 9.632812 -68.808594 3.441406 -62.617188 3.441406 -55.046875 L 3.441406 -13.761719 C 3.441406 -6.191406 9.632812 0 17.203125 0 L 72.25 0 L 72.25 -13.761719 L 17.203125 -13.761719 L 17.203125 -27.523438 L 72.25 -27.523438 L 72.25 -41.285156 L 17.203125 -41.285156 L 17.203125 -55.046875 L 72.25 -55.046875 Z M 72.25 -68.808594 "/></g></g></g><g fill="#4ea8de" fill-opacity="1"><g transform="translate(501.070302, 490.851475)"><g><path d="M 72.25 0 L 72.25 -13.761719 L 17.203125 -13.761719 L 17.203125 -55.046875 L 72.25 -55.046875 L 72.25 -68.808594 L 17.203125 -68.808594 C 9.632812 -68.808594 3.441406 -62.617188 3.441406 -55.046875 L 3.441406 -13.761719 C 3.441406 -6.191406 9.632812 0 17.203125 0 Z M 72.25 0 "/></g></g></g><g fill="#4ea8de" fill-opacity="1"><g transform="translate(590.344102, 490.851475)"><g><path d="M 72.25 -68.808594 L 3.441406 -68.808594 L 3.441406 -55.046875 L 30.964844 -55.046875 L 30.964844 0 L 44.726562 0 L 44.726562 -55.046875 L 72.25 -55.046875 Z M 72.25 -68.808594 "/></g></g></g><g fill="#4ea8de" fill-opacity="1"><g transform="translate(679.617901, 490.851475)"><g><path d="M 72.25 -68.808594 L 17.203125 -68.808594 C 9.632812 -68.808594 3.441406 -62.617188 3.441406 -55.046875 L 3.441406 -41.285156 C 3.441406 -33.714844 9.632812 -27.523438 17.203125 -27.523438 L 58.488281 -27.523438 L 58.488281 -13.761719 L 3.441406 -13.761719 L 3.441406 0 L 58.488281 0 C 66.054688 0 72.25 -6.191406 72.25 -13.761719 L 72.25 -27.523438 C 72.25 -35.09375 66.054688 -41.285156 58.488281 -41.285156 L 17.203125 -41.285156 L 17.203125 -55.046875 L 72.25 -55.046875 Z M 72.25 -68.808594 "/></g></g></g></svg>